<svg width="152" height="204" xmlns="http://www.w3.org/2000/svg" xmlns:xlink="http://www.w3.org/1999/xlink" xml:space="preserve" enable-background="new 0 0 710 625" version="1.1">
 <g>
  <title>Layer 1</title>
  <g id="svg_1">
   <g id="svg_2">
    <title>Layer 1</title>
    <g id="svg_143">
     <ellipse ry="5.2" rx="104.3" cy="577.86597" cx="68.25001" opacity="0.05" id="svg_210"/>
     <ellipse ry="6" rx="107.7" cy="577.06597" cx="-170.54999" opacity="0.05" id="svg_209"/>
     <ellipse ry="6" rx="96.3" cy="577.06597" cx="-342.24999" opacity="0.05" id="svg_208"/>
     <g id="svg_203">
      <g id="svg_206" opacity="0.1">
       <path id="svg_207" d="m-342.34999,159.16597c0.9,1.5 1.5,3.3 1.5,5.2c0,1.9 -0.7,3.8 -1.7,5.4c-1,1.6 -2.3,3 -3.8,4.1c-1.5,1.1 -3.1,2 -4.7,2.7c-3.2,1.5 -6.5,2.4 -9.3,4c-2.8,1.5 -5.4,3.6 -6.9,6.8c0,-1.8 0.7,-3.5 1.7,-5.1c1,-1.5 2.3,-2.9 3.8,-4c3,-2.2 6.3,-3.4 9.3,-4.8c1.5,-0.7 3,-1.4 4.3,-2.3c1.3,-0.9 2.5,-1.9 3.5,-3.1c1,-1.2 1.8,-2.5 2.2,-4c0.4,-1.4 0.3,-3.1 0.1,-4.9z" fill="#FFF"/>
      </g>
      <g id="svg_204" opacity="0.1">
       <path id="svg_205" d="m-330.94999,156.86597c1.2,-1 2.6,-1.7 4.3,-2c1.6,-0.2 3.4,0.1 4.9,0.8c3.1,1.3 5.3,4 7,6.5c1.7,2.6 2.9,5.3 4.6,7.5c1.7,2.2 3.8,4.2 6.8,5.1c-1.5,0.2 -3.2,-0.1 -4.6,-0.8c-1.4,-0.7 -2.8,-1.7 -3.9,-2.8c-2.3,-2.3 -3.8,-5 -5.4,-7.5c-0.8,-1.2 -1.6,-2.4 -2.5,-3.4c-0.9,-1.1 -1.9,-1.9 -3.1,-2.7c-1.1,-0.7 -2.4,-1.2 -3.8,-1.4c-1.3,0 -2.8,0.3 -4.3,0.7z" fill="#FFF"/>
      </g>
     </g>
     <g id="svg_144">
      <path id="svg_202" d="m87.20839,3.9c0,0 34.6,8.7 27.9,54.8c-6.1,42.6 23.9,42.1 23.9,42.1s0.6,17.2 -31.3,7.6c-18.4,-5.6 -74.2,15 -75.5,-8.8c0,0 28,5.5 32.8,-16.9c5.4,-25.2 22.2,-78.8 22.2,-78.8z" fill="url(#svg_187)"/>
      <g id="svg_189">
       <g id="svg_190">
        <path id="svg_201" d="m-13.0916,206.06667l0,0c-5.5,-4.9 -6.1,-13.3 -1.3,-19l55.5,-64.7c6.9,-8.1 19.3,-8.6 26.9,-1.1l0,0c7.4,7.3 7.2,19.3 -0.5,26.4l-62.4,58c-5.1,4.9 -12.9,5 -18.2,0.4z" fill="#DFAA88"/>
        <g id="svg_193">
         <g id="svg_199">
          <path id="svg_200" d="m-47.1916,126.36667l-11,-18.9c-2.5,-3.1 -5.1,-6.1 -7.6,-9.2c-1.2,-1.4 -7,-10.7 -9.6,-9.6c-0.7,0.3 -0.5,1.4 -0.1,2c3.3,6.5 7,12.9 10.9,19.1c-3.3,-5.2 -7.2,-10 -10.8,-15c-0.8,-1.1 -1.6,-2 -2.7,-2.9c-0.4,-0.3 -0.9,-0.6 -1.5,-0.5c-0.1,0 -0.2,0.1 -0.2,0.1c0,0.1 0,0.1 -0.1,0.2c-0.2,0.8 0,1.6 0.3,2.3c0.3,0.7 0.9,1.3 1.2,2c0.3,0.7 0.7,1.4 1.1,2.1c0.9,1.5 1.9,3.1 2.9,4.6c1,1.5 2,3 3,4.5c1,1.5 1.8,3.1 2.8,4.5c-2.3,-3.1 -4.7,-6.1 -7,-9.2c-1,-1.3 -2,-2.6 -3.1,-3.8c-1,-1.1 -1.7,-2.4 -3,-3.1c-0.2,-0.1 -0.4,-0.2 -0.7,-0.1c-0.2,0.1 -0.3,0.3 -0.4,0.5c-0.5,2.1 1.3,4.6 2.4,6.3c2.5,3.9 5,7.8 7.4,11.7c-1.1,-1.8 -2.5,-3.6 -3.9,-5.2c-0.6,-0.7 -1.2,-1.4 -1.9,-2.1c-0.8,-0.9 -1.5,-2 -2.7,-2.1c-0.1,0 -0.3,0 -0.4,0.1c-0.1,0.1 -0.1,0.2 -0.1,0.4c0,0.5 0.1,0.9 0.2,1.4c0.5,2.1 1.3,4.2 2.3,6.1c1,1.9 2.2,3.7 3.1,5.7c2,4.8 4.6,8.9 8.8,12.1c3,2.3 6,4.5 9,6.8l11.4,-10.8z" fill="#DFAA88"/>
         </g>
         <g id="svg_194">
          <g id="svg_195">
           <polygon id="svg_198" points="-60.091583251953125,134.66665649414062 -19.691619873046875,200.66665649414062 8.90838623046875,189.06668090820312 -48.491607666015625,122.4666748046875 " fill="#DFAA88"/>
           <path id="svg_197" d="m-56.8916,94.86667l3.2,4.5c2.2,3.1 3.5,6.7 3.7,10.4c0.6,3.6 1.2,7.1 1.8,10.7c0.2,1 1.5,5.5 0.2,5.8c-1.2,0.3 -4.1,-1.6 -5.1,-2.2c-1.5,-0.8 -3,-1.7 -4.4,-2.7c-1.1,-0.8 -2.2,-1.7 -2.9,-2.8c-1.3,-1.7 -1.8,-3.9 -1.4,-6c0.2,-1.2 0.7,-2.3 1.4,-3.3c0.5,-0.7 1.8,-1.5 2,-2.2c0.2,-1 -0.9,-3 -1.1,-4c-0.7,-2.4 -1.4,-4.8 -2,-7.2c-0.8,-1.4 0.5,-3.1 2.1,-2.8c0.9,0.3 1.8,0.9 2.5,1.8z" fill="#DFAA88"/>
           <circle id="svg_196" r="15.9" cy="193.16667" cx="-5.4916" fill="#E0AA88"/>
          </g>
         </g>
        </g>
        <path id="svg_192" d="m7.5084,161.56667c0,0 5.6,6.6 9.4,12.8c3.8,6.2 8.2,12.9 8.2,12.9l11,-10.2l-23.5,-22.4l-5.1,6.9z" fill="#CD9478"/>
        <path id="svg_191" d="m5.37504,156.43331l28.83336,27.43336l38.5,-37.4c6.4,-8.1 5.5,-19.7 -2.1,-26.7l-5.6,-4.1c-6.7,-4.9 -17.93335,-4.80001 -23.23335,1.49999l-36.40001,39.26665z" fill="#3651B4"/>
       </g>
      </g>
      <g id="svg_181">
       <path id="svg_188" d="m131.14204,137.5722c-0.1,8 -2.69999,16.5667 -4.66666,24.80003c-1.96667,8.23334 -1.05258,20.27026 -11.40001,41.09997c-10.34744,20.82971 -5.98168,39.50239 -2.68168,49.08388c3.3,9.58149 2.63248,6.5704 5.26608,16.14958c2.6336,9.57918 -4.3626,7.10844 -9.01126,8.02501c-4.64867,0.91658 -17.71229,-2.37217 -29.71303,-3.14351c-12.00074,-0.77134 -18.19681,-1.49418 -37.86353,0.37251c-19.66672,1.8667 -26.26782,3.43796 -23.10577,-7.19615c3.16206,-10.63411 3.79105,-11.86152 8.12667,-21.89133c4.33561,-10.02981 10.09751,-20.94973 9.69751,-31.64973c-0.5,-13.2 -5.0005,-26.82023 -10.37397,-38.22023c-7.11865,-9.74869 -6.21224,-29.22937 4.56036,-36.01072c1.12125,-1.68187 4.73658,-3.4955 9.83892,-6.72047c8.60409,-8.06191 11.20825,-13.5579 15.88622,-18.41931c7.3,-3.9 27.74016,-5.97953 33.74016,-5.97953c7.3,-0.1 7.6,0.1 15,2.6c16.6,5.8 26.9,13.4 26.7,27.1l-0.00001,0z" fill="#3965C6"/>
       <g id="svg_182">
        <defs transform="translate(0 -2) translate(-93 -104) translate(0 -0.46701) translate(-250 -9) translate(67 -10) translate(-212 105) translate(403.45 0) translate(0 14.467) translate(1 -6) translate(0 -6) translate(-5 15) translate(11 -8) translate(-9 -112) translate(-6 2) translate(0 -1) translate(0 -1) translate(0 -1) translate(0 -1) translate(0 -1) translate(0 -1) translate(0 -1) translate(0 -1) translate(0 -1) translate(0 -1) translate(0 -1) translate(0 -1) translate(0 -1) translate(0 -1) translate(0 -1) translate(0 -1) translate(0 -1) translate(0 -1) translate(0 -6) translate(0 -1) translate(0 -1) translate(0 -1) translate(0 -1) translate(0 -1) translate(0 -1) translate(0 -1) translate(0 -1) translate(0 -1) translate(0 -1) translate(0 -1) translate(0 -1) translate(0 -1) translate(0 -1) translate(0 -1) translate(0 -1) translate(0 -1) translate(0 -1) translate(0 -1) translate(0 -1) translate(0 -1) translate(0 -1) translate(0 -1) translate(0 -1) translate(0 -1) translate(0 -1) translate(0 -1) translate(0 -1) translate(0 -1) translate(0 -1) translate(0 -1) translate(0 -1) translate(0 -1) translate(0 -1) translate(0 -1) translate(0 -1) translate(0 -1) translate(0 -1) translate(0 -1) translate(0 -1) translate(0 1) translate(0 3.36191) translate(3 0) translate(14 0) translate(31 0) translate(43 0) translate(3 0) translate(3 0) translate(3 0) translate(-17 0) translate(-6 0) translate(-114 0) translate(34 0) translate(3.00024 0) translate(-19.0002 29.0003) translate(9.00008 0) translate(8.00007 0) translate(-25.0002 2.00002) translate(-1 0) translate(-1 0) translate(-0.345825 0) translate(-27.0002 -9.00008) translate(-148.001 3.00003) translate(0 -0.16663) translate(0.333261 0) translate(0.16663 0) translate(-1.00004 0) translate(1.00004 0) translate(0 -0.165963) translate(2 0) translate(0 2.00011) translate(2.00011 0) translate(-0.666144 3.49726) translate(0 0.166536) translate(0 -1.00005) translate(0.124971 0) translate(10.9807 7.2373) translate(-116 111) translate(-26 6) translate(0 -1) translate(-4 2) translate(-7 -7) translate(1 0) translate(-16 -7) translate(-38 8)">
         <path d="m618.6,169.1c-0.1,8 -4.2,13.4 -5.5,21.3c-2.6,15.1 -5.8,29.9 -9.9,44.6c-5.9,21.2 -0.2,39 -5.6,48.5c-3.1,5.5 -1.9,6.7 -0.6,15.6c0.8,5.6 -2.2,14.4 -2.9,14.8c-0.9,0.5 -17.7,-4.3 -30.7,-3.8c-14,0.5 -22.7,4 -36.7,2.7c-7.7,-0.7 -12.6,-8.3 -10.6,-13.7c4,-10.8 -3.4,-14.3 -0.3,-22.7c3.5,-9.2 3.1,-20.2 2.7,-30.9c-0.5,-13.2 -1.5,-24.7 -6,-36.1c-3.5,-9 -3.1,-19.4 6.3,-29.8c0,0 6,-7.2 9,-12.7c5.1,-9.4 9,-17.5 15.5,-21.1c7.3,-3.9 27.6,-6.4 33.6,-6.4c7.3,-0.1 7.6,0.1 15,2.6c16.6,5.8 26.9,13.4 26.7,27.1z" id="svg_186"/>
         <linearGradient y2="0.59544" x2="0.67572" y1="0.13685" x1="0.93415" id="svg_187">
          <stop stop-color="#151214" offset="0.358"/>
          <stop stop-color="#291D29" offset="1"/>
         </linearGradient>
        </defs>
        <clipPath transform="translate(0 -2) translate(-93 -104) translate(0 -0.46701) translate(-250 -9) translate(67 -10) translate(-212 105) translate(403.45 0) translate(0 14.467) translate(1 -6) translate(0 -6) translate(-5 15) translate(11 -8) translate(-9 -112) translate(-6 2) translate(0 -1) translate(0 -1) translate(0 -1) translate(0 -1) translate(0 -1) translate(0 -1) translate(0 -1) translate(0 -1) translate(0 -1) translate(0 -1) translate(0 -1) translate(0 -1) translate(0 -1) translate(0 -1) translate(0 -1) translate(0 -1) translate(0 -1) translate(0 -1) translate(0 -6) translate(0 -1) translate(0 -1) translate(0 -1) translate(0 -1) translate(0 -1) translate(0 -1) translate(0 -1) translate(0 -1) translate(0 -1) translate(0 -1) translate(0 -1) translate(0 -1) translate(0 -1) translate(0 -1) translate(0 -1) translate(0 -1) translate(0 -1) translate(0 -1) translate(0 -1) translate(0 -1) translate(0 -1) translate(0 -1) translate(0 -1) translate(0 -1) translate(0 -1) translate(0 -1) translate(0 -1) translate(0 -1) translate(0 -1) translate(0 -1) translate(0 -1) translate(0 -1) translate(0 -1) translate(0 -1) translate(0 -1) translate(0 -1) translate(0 -1) translate(0 -1) translate(0 -1) translate(0 -1) translate(0 1) translate(0 3.36191) translate(3 0) translate(14 0) translate(31 0) translate(43 0) translate(3 0) translate(3 0) translate(3 0) translate(-17 0) translate(-6 0) translate(-114 0) translate(34 0) translate(3.00024 0) translate(-19.0002 29.0003) translate(9.00008 0) translate(8.00007 0) translate(-25.0002 2.00002) translate(-1 0) translate(-1 0) translate(-0.345825 0) translate(-27.0002 -9.00008) translate(-148.001 3.00003) translate(0 -0.16663) translate(0.333261 0) translate(0.16663 0) translate(-1.00004 0) translate(1.00004 0) translate(0 -0.165963) translate(2 0) translate(0 2.00011) translate(2.00011 0) translate(-0.666144 3.49726) translate(0 0.166536) translate(0 -1.00005) translate(0.124971 0) translate(10.9807 7.2373) translate(-116 111) translate(-26 6) translate(0 -1) translate(-4 2) translate(-7 -7) translate(1 0) translate(-16 -7) translate(-38 8)" id="svg_184">
         <use x="-487.95779" y="-32.06932" id="svg_185" overflow="visible" xlink:href="#svg_186" xlink:href="#svg_186"/>
        </clipPath>
        <path id="svg_183" d="m127.84221,153.43068c-0.1,4 -0.4,7.9 -1,11.7c-3.2,21.7 -3,43.6 -8.4,64.8c-3,11.7 -2.5,22.9 -10.8,27.4l0,0c4.2,-34.8 -15.5,-48.2 8.2,-88.3c3.7,-6.3 -17.3,-24.2 -17.3,-24.2l29.3,8.6z" fill="#3651B4" clip-path="url(#svg_184)"/>
       </g>
      </g>
      <path id="svg_180" d="m43.40839,20.5c0,0 -3.1,19.6 -1.5,39.6c1.7,20 14.5,33.9 23.5,33.9s24.6,-11.9 29.5,-26.6c0,0 9,-3.3 9.6,-13.1s-9,-8.6 -12,-3.2c0,0 2.2,-15.2 -6.8,-30.6s-37.9,-11.9 -42.3,0z" fill="#DFAA88"/>
      <path id="svg_179" d="m87.10839,50.8c0,0 -36,-7.3 -41.3,-24.8c0,0 -5,16.9 -4.1,31c0,0 -5.7,-10.8 -4.9,-28.8s17.1,-27.2 34.7,-27.2s34.7,10.3 38.5,28c3.9,17.7 -7.6,32.2 -7.6,32.2l1.6,-11.1l-5.6,-2.2l-5.8,3.3l-5.5,-0.4z" fill="#151214"/>
      <g id="svg_176">
       <ellipse id="svg_178" ry="2.5" rx="1.8" cy="53.3" cx="74.60839" fill="#010000"/>
       <ellipse id="svg_177" ry="2.5" rx="1.8" cy="53.3" cx="52.00839" fill="#010000"/>
      </g>
      <path id="svg_175" d="m53.80839,44c0,0 -2.7,-1.2 -5.9,-1.2c-3.2,0 -4.9,0.6 -4.9,0.6s1.3,-1.6 5,-1.6c3.8,0.1 5.8,2.2 5.8,2.2z" fill="#340415"/>
      <path id="svg_174" d="m56.90839,47.9c0,0 3,3 3.4,6.5c0.3,3.5 -3,7.2 -4.7,9.6c-1.7,2.4 -1.7,3.5 3,5.6" stroke-miterlimit="10" stroke-linecap="round" stroke="#2D1727" fill="none" opacity="0.4"/>
      <path id="svg_173" d="m68.30839,73.9l-14.3,0c0,0 0,0.9 0.3,1.4c0.3,0.5 2.6,4.3 6.4,4.4s7.6,-4.9 7.6,-4.9s0.2,-0.5 0,-0.9z" fill="#FFFEFB"/>
      <path id="svg_172" d="m98.10839,65.7c0,0 -3.3,13.8 -1.8,21.7c1.6,7.9 9.4,26.8 25.7,31.6c0,0 -18.4,27 -48.2,26.7c-29.8,-0.4 -20.9,-25.4 -20.9,-25.4l4.5,-5.2c0,0 8,-4.9 11.6,-9.9c2.4,-3.4 2.7,-12.6 2.7,-12.6l22.6,-25.9c0.2,0 2.7,-1.3 3.8,-1z" fill="#DFAA88"/>
      <path id="svg_171" d="m96.00839,66.6c0,0 -1.5,6.7 -8.2,17.7c-4.8,7.9 -11.5,12.7 -16.7,14.8c0,0 0.8,-2.3 0.7,-6.6c0,0 15.2,-8.9 24.2,-25.9z" fill="#CD9478"/>
      <g id="svg_168">
       <path id="svg_170" d="m92.60839,51.1c0,-0.1 0,-0.2 0,-0.2c0,0.1 0,0.2 0,0.2z" fill="#DFAA88"/>
       <path id="svg_169" d="m94.90839,67.5c0,0 -3.7,-5.1 -2.4,-16.3c3,-5.4 12.7,-6.6 12,3.2c-0.6,9.8 -9.6,13.1 -9.6,13.1z" fill="#DFAA88"/>
      </g>
      <path id="svg_167" d="m99.90839,51.9c0,0 -2.4,-0.4 -2.6,0.4c-0.2,0.8 2.2,0.5 2.6,1.2c0.4,0.7 0.2,2.5 -1.7,3.4c-1.9,0.9 -1.1,4.1 1.2,3.1c2.3,-1 3.7,-5.2 0.5,-8.1z" fill="#D39B81"/>
      <path id="svg_166" d="m69.90839,130.4c4.3,-0.2 8.3,-1.9 12.1,-3.9c8.6,-4.5 19.1,-13.4 25.5,-20.7c0.8,2.3 21,12.6 21.3,14.8c0.7,5.5 -19.1,6.6 -17.9,12.5c1.8,8.5 3.4,17.8 -0.7,25.4c-2.1,3.8 -5.5,6.8 -8.8,9.6c-3.4,2.9 -7,5.8 -11.2,7.4c-3.8,1.5 -8,1.8 -12,1.7c-11.1,-0.2 -22.6,-3.7 -29.8,-12.2c-5.7,-6.8 -9,-15.9 -8.4,-24.6c0.1,-1.9 0.4,-3.8 1,-5.6c1,-2.7 3,-5 4.9,-7.2c3.9,-4.4 6.3,-6.2 10.9,-2.4c3.9,3.4 8,5.5 13.1,5.2z" fill="#3965C6"/>
      <g id="svg_159">
       <g id="svg_162">
        <path id="svg_165" d="m141.90839,231c-7.1,2.1 -14.5,-1.9 -16.7,-9l-25.1,-81.5c-3.1,-10.2 3.1,-20.9 13.5,-23.3c10.1,-2.3 20.2,4.3 22.1,14.5c0.1,0.4 0.2,0.8 0.3,1.3c1.6,7.4 4.5,14.2 6.1,21.7c1.2,5.5 5.8,30.2 6.3,32.9c1,5.3 2,10.5 3,15.8c0.7,3.9 1.5,7.8 1.1,11.7c-0.6,6 -4.4,14.1 -10.6,15.9z" fill="#DFAA88"/>
        <path id="svg_164" d="m115.50839,190.4c0,0 10.9,-2.9 18.7,-3.3c7.8,-0.4 14.2,0.4 14.2,0.4l-3.1,-14.9c0,0 -32.1,7.3 -32.6,8.9c-0.4,1.6 2.8,8.9 2.8,8.9z" fill="#CD9478"/>
        <path id="svg_163" d="m114.20839,189.4l35,-11.1l-11.5,-45.4c-4.5,-13.2 -16.2,-22.9 -24.7,-21.6l-4.1,2.3c-7.8,2.7 -12.9,14.4 -10.8,22.5l16.1,53.3z" fill="#3965C6"/>
       </g>
       <path id="svg_161" d="m100.80839,98.1c9.4,5.3 7.8,13.3 1.6,20.2c-7.2,7.9 -12.1,17.8 -17.6,26.9c-7,-5.1 -14,-10.3 -21,-15.4c1.7,1.3 10.7,-6 12.2,-7.2c4,-3.2 7.5,-6.4 11.4,-9.5c4.2,-3.3 14.6,-9.9 13.4,-15z" fill="#3651B4"/>
       <path id="svg_160" d="m47.60839,141.4c3.6,-1.9 6.7,-4.3 10,-6.5c1.6,-1.1 6,-2.6 6.6,-4.5c0.4,-1.2 -1.4,-2.7 -1.7,-3.9c-0.7,-2.2 -0.9,-4.9 -0.5,-7.1c0.1,-0.7 6,-6.7 6.6,-13.5c-1,2.7 -17.8,12.6 -20,15.7c-2.2,3.1 -2.8,6 -2.8,9.8c-0.1,1.3 0.2,10.8 1.8,10z" fill="#3651B4"/>
      </g>
      <g id="svg_157">
       <path id="svg_158" d="m130.50839,319.7c-5.2,1.1 -22.8,3.2 -25.4,-3.6c-1.9,-5.2 13.6,-8.1 10.4,-11.9c-1.9,-2.2 -8.5,4.2 -10.4,1.6c-3.2,-4.4 7.1,-9.8 11.4,-11.3c3.1,-1.1 9.1,-3.4 11.9,-4.3c-2.2,0.7 1.5,14.2 2.2,15.1c3.8,4.6 9.8,12.3 -0.1,14.4z" fill="#DFAA88"/>
      </g>
      <path id="svg_156" d="m124.70839,227.6c-0.3,5.6 -0.2,11.2 -0.3,16.8c-0.2,13.8 -0.4,27.6 -0.7,41.4c-0.1,3.9 -0.1,7.8 -0.2,11.8l12.1,15.4c1.5,-7.7 3,-15.5 4.5,-23.2c2.7,-14.2 5.5,-28.5 8.2,-42.7c1.9,-9.7 3.9,-18 4.7,-27.8c0.1,-1.7 -0.2,-8.7 -0.7,-10.3c-0.5,-1.7 -1.5,0.7 -3.2,0.2c-2.2,-0.7 -4.5,0.5 -6.4,1.6c-5.4,3.2 -18.9,-0.2 -18.5,6.1c0.2,3.2 0.7,7.2 0.5,10.7z" fill="#DFAA88"/>
      <g id="svg_151">
       <path id="svg_155" d="m61.70839,131.8c0,0 -9.9,21.6 -9.2,23.5c0.7,1.9 4.6,2 4.6,2l9.9,-26.2l-4.3,-1.9l-1,2.6z" fill="#3651B4"/>
       <g id="svg_152">
        <ellipse id="svg_154" ry="0.9" rx="1.5" cy="-290.32669" cx="395.36657" fill="#97A1D6" transform="matrix(0.385 -0.9229 0.9229 0.385 178.457 612.784)"/>
        <ellipse id="svg_153" ry="0.9" rx="1.5" cy="-279.32669" cx="390.56657" fill="#97A1D6" transform="matrix(0.385 -0.9229 0.9229 0.385 165.346 615.112)"/>
       </g>
      </g>
      <path id="svg_150" d="m116.10839,301.4c5,-1.4 10.2,-1.8 15.3,-1c2.1,0.3 4,-4.4 4.9,-2.5c0.6,1.3 1.1,4.4 1.1,5.8c0,0.6 0,6.3 -1.7,12.6c-5.7,-1.4 -11.8,-5.9 -17.7,-5.3c-1.2,0.1 -2.4,0.3 -3.6,0.1c-0.9,-0.2 -4.1,1 -3.8,0c0.1,-0.6 2.7,-1.7 4.3,-4c0.4,-0.5 0.96661,-1.8 1.1,-2.7c0.13339,-0.9 0.3,-3 0.1,-3z" fill="#DFAA88"/>
      <path id="svg_149" d="m70.00839,43.1c0,0 7.8,4.8 14.9,7.4c5.8,2.1 3.7,9.4 -1.5,9.3c0,0 8.9,2.6 10.8,-5.2c1.9,-8 -5,-12.9 -8.5,-13.1c-3.6,0 -15.7,1.6 -15.7,1.6z" fill="#151214"/>
      <path id="svg_148" d="m51.20839,22.9c0,0 4.9,12.4 20.8,15.8c15.9,3.4 17.6,11.4 17.6,11.4s0.1,-6.2 -9.6,-10s-20.3,-3.1 -28.8,-17.2z" fill="#4C474C"/>
      <path id="svg_147" d="m86.10839,7.3c0,0 20.1,4.3 24.7,26.9s-6,39.3 2.9,52.5c8.9,13.2 15.8,14.7 15.8,14.7s-8.8,-0.7 -17.1,-13.9s1.9,-33.9 -3,-52.9c-5.5,-21.9 -23.3,-27.3 -23.3,-27.3z" fill="#4C474C"/>
      <circle id="svg_146" r="2.3" cy="62.6" cx="97.40839" fill="#D39B81"/>
      <circle id="svg_145" r="1.8" cy="62.6" cx="97.40839" fill="#FFF"/>
     </g>
    </g>
   </g>
  </g>
 </g>
</svg>