<svg xmlns="http://www.w3.org/2000/svg" xmlns:xlink="http://www.w3.org/1999/xlink" version="1.1" width="1000" height="1000" viewBox="0 0 1000 1000" xml:space="preserve">
<desc>Created with Fabric.js 3.5.0</desc>
<defs>
</defs>
<rect x="0" y="0" width="100%" height="100%" fill="#ffffff"/>
<g transform="matrix(1.8771 0 0 1.8771 483.6395 731.4951)" id="41766">
<g style="">
		<g transform="matrix(1.6367 0 0 1.6367 22.202 -54.6297)" id="Background">
<rect style="stroke: none; stroke-width: 1; stroke-dasharray: none; stroke-linecap: butt; stroke-dashoffset: 0; stroke-linejoin: miter; stroke-miterlimit: 4; is-custom-font: none; font-file-url: none; fill: rgb(87,107,40); fill-rule: nonzero; opacity: 1;" x="-125" y="-125" rx="0" ry="0" width="250" height="250"/>
</g>
		<g transform="matrix(2.0824 0 0 2.0824 -0.5534 -72.4649)" id="Background">
<circle style="stroke: none; stroke-width: 1; stroke-dasharray: none; stroke-linecap: butt; stroke-dashoffset: 0; stroke-linejoin: miter; stroke-miterlimit: 4; is-custom-font: none; font-file-url: none; fill: rgb(198,134,66); fill-rule: nonzero; opacity: 1;" cx="0" cy="0" r="125"/>
</g>
		<g transform="matrix(1.6367 0 0 1.6367 36.5917 -157.0454)" id="Woman_3">
<path style="stroke: none; stroke-width: 1; stroke-dasharray: none; stroke-linecap: butt; stroke-dashoffset: 0; stroke-linejoin: miter; stroke-miterlimit: 4; is-custom-font: none; font-file-url: none; fill: rgb(255,219,172); fill-rule: nonzero; opacity: 1;" transform=" translate(-160.8117, -98.1081)" d="M 194 62.7 c 0 0 3.5 22 1.6 44.3 s -16.2 38 -26.2 38 s -27.6 -13.3 -33.1 -29.8 c 0 0 -10 -3.6 -10.8 -14.6 s 10.1 -9.7 13.5 -3.6 c -1.1 -11.9 1.6 -23.9 7.6 -34.3 C 156.6 45.5 189.1 49.4 194 62.7 z" stroke-linecap="round"/>
</g>
		<g transform="matrix(1.6367 0 0 1.6367 30.4621 -160.3593)" id="Woman_3">
<ellipse style="stroke: none; stroke-width: 1; stroke-dasharray: none; stroke-linecap: butt; stroke-dashoffset: 0; stroke-linejoin: miter; stroke-miterlimit: 4; is-custom-font: none; font-file-url: none; fill: rgb(1,0,0); fill-rule: nonzero; opacity: 1;" cx="0" cy="0" rx="2" ry="2.8"/>
</g>
		<g transform="matrix(1.6367 0 0 1.6367 71.7075 -160.3593)" id="Woman_3">
<ellipse style="stroke: none; stroke-width: 1; stroke-dasharray: none; stroke-linecap: butt; stroke-dashoffset: 0; stroke-linejoin: miter; stroke-miterlimit: 4; is-custom-font: none; font-file-url: none; fill: rgb(1,0,0); fill-rule: nonzero; opacity: 1;" cx="0" cy="0" rx="2" ry="2.8"/>
</g>
		<g transform="matrix(1.6367 0 0 1.6367 78.2542 -179.8362)" id="Woman_3">
<path style="stroke: none; stroke-width: 1; stroke-dasharray: none; stroke-linecap: butt; stroke-dashoffset: 0; stroke-linejoin: miter; stroke-miterlimit: 4; is-custom-font: none; font-file-url: none; fill: rgb(52,4,21); fill-rule: nonzero; opacity: 1;" transform=" translate(-188.3, -87.5)" d="M 182.3 89 c 2.1 -0.8 4.3 -1.3 6.6 -1.3 c 1.8 -0.1 3.7 0.2 5.4 0.7 c 0 0 -1.3 -2.4 -5.4 -2.4 C 186.4 86.1 184 87.2 182.3 89 z" stroke-linecap="round"/>
</g>
		<g transform="matrix(1.6367 0 0 1.6367 26.9431 -182.455)" id="Woman_3">
<path style="stroke: none; stroke-width: 1; stroke-dasharray: none; stroke-linecap: butt; stroke-dashoffset: 0; stroke-linejoin: miter; stroke-miterlimit: 4; is-custom-font: none; font-file-url: none; fill: rgb(52,4,21); fill-rule: nonzero; opacity: 1;" transform=" translate(-156.95, -85.9)" d="M 150.9 87.3 c 2.1 -0.8 4.4 -1.1 6.6 -1.1 c 1.9 0.1 3.7 0.4 5.5 0.9 c 0 0 -1.3 -2.4 -5.4 -2.6 C 155.1 84.5 152.6 85.5 150.9 87.3 z" stroke-linecap="round"/>
</g>
		<g transform="matrix(1.6367 0 0 1.6367 61.945 -150.4573)" id="Woman_3">
<path style="stroke: rgb(94,64,61); stroke-width: 1; stroke-dasharray: none; stroke-linecap: butt; stroke-dashoffset: 0; stroke-linejoin: miter; stroke-miterlimit: 10; is-custom-font: none; font-file-url: none; fill: none; fill-rule: nonzero; opacity: 1;" transform=" translate(-178.3353, -105.45)" d="M 178.9 93.3 c 0 0 -3.4 3.4 -3.8 7.3 s 3.3 8.1 5.3 10.8 s 1.9 3.9 -3.4 6.2" stroke-linecap="round"/>
</g>
		<g transform="matrix(1.6367 0 0 1.6367 55.0162 -118.2126)" id="Woman_3">
<path style="stroke: none; stroke-width: 1; stroke-dasharray: none; stroke-linecap: butt; stroke-dashoffset: 0; stroke-linejoin: miter; stroke-miterlimit: 4; is-custom-font: none; font-file-url: none; fill: rgb(255,254,251); fill-rule: nonzero; opacity: 1;" transform=" translate(-174.1021, -125.1507)" d="M 166.2 121.9 h 15.9 c 0.1 0.6 0 1.1 -0.3 1.6 c -0.3 0.5 -2.9 4.8 -7.2 4.9 s -8.4 -5.4 -8.4 -5.4 S 165.9 122.3 166.2 121.9 z" stroke-linecap="round"/>
</g>
		<g transform="matrix(1.6367 0 0 1.6367 -0.5548 -64.4224)" id="Woman_3">
<path style="stroke: none; stroke-width: 1; stroke-dasharray: none; stroke-linecap: butt; stroke-dashoffset: 0; stroke-linejoin: miter; stroke-miterlimit: 4; is-custom-font: none; font-file-url: none; fill: rgb(255,219,172); fill-rule: nonzero; opacity: 1;" transform=" translate(-140.15, -158.0158)" d="M 132.7 113.3 c 0 0 3.8 15.4 2 24.3 s -21.5 26.9 -39.8 32.3 c 0 0 31.6 33.3 64.9 32.9 s 23.4 -28.5 23.4 -28.5 l 2.2 -4 c 0 0 -16.2 -7.3 -20.2 -12.9 c -2.7 -3.8 -3 -14.1 -3 -14.1 l -25.4 -29 C 136.8 114.3 134 112.9 132.7 113.3 z" stroke-linecap="round"/>
</g>
		<g transform="matrix(1.6367 0 0 1.6367 14.0946 -106.1841)" id="Woman_3">
<path style="stroke: none; stroke-width: 1; stroke-dasharray: none; stroke-linecap: butt; stroke-dashoffset: 0; stroke-linejoin: miter; stroke-miterlimit: 4; is-custom-font: none; font-file-url: none; fill: rgb(241,194,125); fill-rule: nonzero; opacity: 1;" transform=" translate(-149.1, -132.5)" d="M 135.2 114.3 c 0 0 1.7 7.5 9.1 19.8 c 4.3 7.4 10.9 13.2 18.7 16.6 c -0.7 -2.4 -0.9 -4.9 -0.8 -7.4 C 150.9 136.1 141.6 126.1 135.2 114.3 z" stroke-linecap="round"/>
</g>
		<g transform="matrix(1.6367 0 0 1.6367 -2.5178 -164.5328)" id="Woman_3">
<path style="stroke: none; stroke-width: 1; stroke-dasharray: none; stroke-linecap: butt; stroke-dashoffset: 0; stroke-linejoin: miter; stroke-miterlimit: 4; is-custom-font: none; font-file-url: none; fill: rgb(223,170,136); fill-rule: nonzero; opacity: 1;" transform=" translate(-138.95, -96.85)" d="M 139 97 c 0 -0.1 0 -0.2 -0.1 -0.3 L 139 97 z" stroke-linecap="round"/>
</g>
		<g transform="matrix(1.6367 0 0 1.6367 -13.2457 -153.1921)" id="Woman_3">
<path style="stroke: none; stroke-width: 1; stroke-dasharray: none; stroke-linecap: butt; stroke-dashoffset: 0; stroke-linejoin: miter; stroke-miterlimit: 4; is-custom-font: none; font-file-url: none; fill: rgb(255,219,172); fill-rule: nonzero; opacity: 1;" transform=" translate(-132.3956, -103.7791)" d="M 136.3 115.2 c 0 0 4.2 -5.6 2.7 -18.2 c -3.4 -6.1 -14.2 -7.4 -13.5 3.6 S 136.3 115.2 136.3 115.2 z" stroke-linecap="round"/>
</g>
		<g transform="matrix(1.6367 0 0 1.6367 -15.0359 -155.3933)" id="Woman_3">
<path style="stroke: none; stroke-width: 1; stroke-dasharray: none; stroke-linecap: butt; stroke-dashoffset: 0; stroke-linejoin: miter; stroke-miterlimit: 4; is-custom-font: none; font-file-url: none; fill: rgb(255,219,172); fill-rule: nonzero; opacity: 1;" transform=" translate(-131.3017, -102.4341)" d="M 130.8 97.9 c 0 0 2.7 -0.5 2.9 0.4 s -2.4 0.6 -2.9 1.4 s -0.2 2.7 1.9 3.7 s 1.3 4.6 -1.3 3.5 S 127.2 101 130.8 97.9 z" stroke-linecap="round"/>
</g>
		<g transform="matrix(1.6367 0 0 1.6367 -11.2743 -143.3374)" id="Woman_3">
<circle style="stroke: none; stroke-width: 1; stroke-dasharray: none; stroke-linecap: butt; stroke-dashoffset: 0; stroke-linejoin: miter; stroke-miterlimit: 4; is-custom-font: none; font-file-url: none; fill: rgb(29,193,165); fill-rule: nonzero; opacity: 1;" cx="0" cy="0" r="2.5"/>
</g>
		<g transform="matrix(1.6367 0 0 1.6367 -11.2743 -143.3374)" id="Woman_3">
<circle style="stroke: none; stroke-width: 1; stroke-dasharray: none; stroke-linecap: butt; stroke-dashoffset: 0; stroke-linejoin: miter; stroke-miterlimit: 4; is-custom-font: none; font-file-url: none; fill: rgb(29,193,165); fill-rule: nonzero; opacity: 1;" cx="0" cy="0" r="2"/>
</g>
		<g transform="matrix(1.6367 0 0 1.6367 110.3704 79.1615)" id="Woman_3">
<path style="stroke: none; stroke-width: 1; stroke-dasharray: none; stroke-linecap: butt; stroke-dashoffset: 0; stroke-linejoin: miter; stroke-miterlimit: 4; is-custom-font: none; font-file-url: none; fill: rgb(255,219,172); fill-rule: nonzero; opacity: 1;" transform=" translate(-207.9226, -245.7425)" d="M 182.7 189.2 c -7.9 2.4 -12.3 10.7 -9.9 18.6 c 0.3 1.1 0.8 2.2 1.4 3.2 l 32 88.2 c 5 8.4 27.7 3 37.5 2.7 L 227 275.2 l -20.5 -78.7 c -4.4 -9.2 -13.5 -10.4 -23.3 -7.5 L 182.7 189.2 z" stroke-linecap="round"/>
</g>
		<g transform="matrix(1.6367 0 0 1.6367 26.9415 138.7797)" id="Woman_3">
<path style="stroke: none; stroke-width: 1; stroke-dasharray: none; stroke-linecap: butt; stroke-dashoffset: 0; stroke-linejoin: miter; stroke-miterlimit: 4; is-custom-font: none; font-file-url: none; fill: rgb(15,9,83); fill-rule: nonzero; opacity: 1;" transform=" translate(-155.5462, -282.1687)" d="M 229.6 385 c -32.2 15.1 -69.7 21.1 -104.1 10.4 c -9.8 -3 -19.6 -5.8 -29.3 -8.6 c -2.8 -0.9 -13 -2.1 -14.4 -4.3 s 2.4 -12.5 3 -15.6 c 2.2 -9.5 7.2 -18.4 11 -27.3 s 8.3 -19.1 12.4 -28.6 c 2.3 -5.3 6.1 -11.1 6.1 -16.9 c 0.2 -13.3 -6.4 -28.2 -10.8 -40.5 c -2.4 -6.8 -5.4 -12.7 -5.8 -19.8 c -0.7 -9.9 -1.1 -19.7 -1.6 -29.6 c -0.3 -6.6 -0.5 -13.1 -0.7 -19.7 c -0.1 -3.3 -1.1 -8.7 0.1 -11.9 s 8 -7.4 11 -8.5 c 6 -2.2 9.9 2.2 13.5 6.4 c 9.5 11.3 21.9 16.5 36.7 15.2 c 6.3 -0.5 13.5 -1.9 18.6 -5.8 c 1.4 -1 8.8 -9.6 5.1 -11.9 c 4.6 1.6 8.5 2.9 12 6.2 s 6 5.2 8.9 9.8 c 1.7 2.9 4.1 7.1 4.8 10.4 c 0.5 2.9 0.7 5.9 0.3 8.8 c -1.7 14.8 3 15.8 1.9 29.4 c -0.8 10.5 -5.7 36.3 -6.6 46.8 c -0.3 4.3 -1.5 9.5 -1 13.8 s 3.1 9.8 4.5 14.3 l 9 28.6 L 229.6 385 z" stroke-linecap="round"/>
</g>
		<g transform="matrix(1.6367 0 0 1.6367 -61.6855 78.8469)" id="Woman_3">
<path style="stroke: none; stroke-width: 1; stroke-dasharray: none; stroke-linecap: butt; stroke-dashoffset: 0; stroke-linejoin: miter; stroke-miterlimit: 4; is-custom-font: none; font-file-url: none; fill: rgb(15,9,83); fill-rule: nonzero; opacity: 1;" transform=" translate(-102.8, -245.55)" d="M 113.7 211.3 c -5.3 23.5 -1.3 68.5 -1.3 68.5 l -13.1 -37.6 l -7.4 -26.5 L 113.7 211.3 z" stroke-linecap="round"/>
</g>
		<g transform="matrix(1.6367 0 0 1.6367 -68.5514 116.8522)" id="Woman_3">
<path style="stroke: rgb(255,255,255); stroke-width: 1.37; stroke-dasharray: none; stroke-linecap: butt; stroke-dashoffset: 0; stroke-linejoin: miter; stroke-miterlimit: 10; is-custom-font: none; font-file-url: none; fill: none; fill-rule: nonzero; opacity: 1;" transform=" translate(-98.6053, -268.7713)" d="M 116.2 370.1 l -38.7 -2.5 l -2.7 -165.2 c -0.1 -9.5 3.2 -18.6 9.4 -25.8 l 3.8 -4.4 c 2.9 -3.4 7.3 -5.1 11.7 -4.7 c 12.7 1.1 20 7.2 22.3 38.5 c 0 0 1.6 45.9 -1.5 89.4 S 116.2 370.1 116.2 370.1 z" stroke-linecap="round"/>
</g>
		<g transform="matrix(1.6367 0 0 1.6367 -65.6503 94.5806)" id="Woman_3">
<path style="stroke: none; stroke-width: 1; stroke-dasharray: none; stroke-linecap: butt; stroke-dashoffset: 0; stroke-linejoin: miter; stroke-miterlimit: 4; is-custom-font: none; font-file-url: none; fill: rgb(255,219,172); fill-rule: nonzero; opacity: 1;" transform=" translate(-100.378, -255.1636)" d="M 134.9 326 c -5.5 -6.8 -14.6 -15.2 -20 -22.2 c -9.8 -12.6 -20.9 -8.3 -30.7 -20.9 l 30.2 -86.6 c 3.5 -9.6 -0.5 -20.3 -9.4 -25.3 l -0.5 -0.3 c -7.3 -4 -16.4 -1.3 -20.3 6 c -0.5 1 -1 2 -1.3 3.1 l -15 53.8 l -6.3 22.6 c -1.8 6.6 -5.4 13.7 -3.6 20.5 c 3.2 11.9 33.6 38.6 36.9 41.6 s 12.2 13.1 14.8 15.5 s 4.5 4.8 7.6 4.7 c 6.8 -0.1 12.8 2.5 19.5 2.9 c 1.3 0.2 2.6 0 3.9 -0.4 c 1.3 -0.4 2.2 -1.5 2.5 -2.8 c 0.3 -1.8 -0.9 -3.4 -2.1 -4.8 S 137 328.4 134.9 326 z" stroke-linecap="round"/>
</g>
		<g transform="matrix(1.6367 0 0 1.6367 76.6043 -217.1913)" id="Woman_3">
<path style="stroke: none; stroke-width: 1; stroke-dasharray: none; stroke-linecap: butt; stroke-dashoffset: 0; stroke-linejoin: miter; stroke-miterlimit: 4; is-custom-font: none; font-file-url: none; fill: rgb(41,29,41); fill-rule: nonzero; opacity: 1;" transform=" translate(-187.292, -64.6772)" d="M 196.2 87.5 c 0 0 13.9 -11.4 6 -28.4 c -8.8 -19 -25.9 -17.2 -30.3 -17.2 C 161.5 41.9 196.2 87.5 196.2 87.5 z" stroke-linecap="round"/>
</g>
		<g transform="matrix(1.6367 0 0 1.6367 -41.9484 -258.8288)" id="Woman_3">
<path style="stroke: rgb(41,29,41); stroke-width: 1; stroke-dasharray: none; stroke-linecap: butt; stroke-dashoffset: 0; stroke-linejoin: miter; stroke-miterlimit: 10; is-custom-font: none; font-file-url: none; fill: none; fill-rule: nonzero; opacity: 1;" transform=" translate(-114.8592, -39.2377)" d="M 107.4 69.3 c 0 0 -19 -0.6 -23.9 -22.2 c -4 -17.1 7.8 -35.2 25.2 -38.3 c 11 -2.1 22.3 2.2 29 11.2 c 2.8 3.9 5.1 8.1 6.9 12.5 c 0.8 2.1 2.4 5 2.4 7.3 l -33.5 30.4 L 107.4 69.3 z" stroke-linecap="round"/>
</g>
		<g transform="matrix(1.6367 0 0 1.6367 -34.7468 -258.8231)" id="Woman_3">
<path style="stroke: none; stroke-width: 1; stroke-dasharray: none; stroke-linecap: butt; stroke-dashoffset: 0; stroke-linejoin: miter; stroke-miterlimit: 4; is-custom-font: none; font-file-url: none; fill: rgb(41,29,41); fill-rule: nonzero; opacity: 1;" transform=" translate(-119.2592, -39.2412)" d="M 111.8 69.3 c 0 0 -19 -0.6 -23.9 -22.2 c -4 -17.1 7.8 -35.2 25.2 -38.3 c 11 -2.1 22.3 2.3 29.1 11.2 c 2.7 3.9 5 8.1 6.8 12.5 c 0.9 2.1 2.4 5 2.4 7.3 l -33.5 30.4 L 111.8 69.3 z" stroke-linecap="round"/>
</g>
		<g transform="matrix(1.6367 0 0 1.6367 -16.5122 -235.6913)" id="Woman_3">
<path style="stroke: none; stroke-width: 1; stroke-dasharray: none; stroke-linecap: butt; stroke-dashoffset: 0; stroke-linejoin: miter; stroke-miterlimit: 4; is-custom-font: none; font-file-url: none; fill: rgb(244,119,198); fill-rule: nonzero; opacity: 1;" transform=" translate(-130.4, -53.374)" d="M 111.8 69.3 c 0 0 1.5 1.8 2.4 -0.6 c 2.1 -5.6 6.4 -18.2 15.6 -23.3 c 13.1 -7.3 19.2 -7.8 19.2 -7.8 c -1.9 -0.5 -3.8 -0.8 -5.8 -0.8 c -4.8 0 -11.6 1.3 -19.1 6.3 C 111.7 51.5 111.8 69.3 111.8 69.3 z" stroke-linecap="round"/>
</g>
		<g transform="matrix(1.6367 0 0 1.6367 11.9503 -194.2307)" id="Woman_3">
<path style="stroke: none; stroke-width: 1; stroke-dasharray: none; stroke-linecap: butt; stroke-dashoffset: 0; stroke-linejoin: miter; stroke-miterlimit: 4; is-custom-font: none; font-file-url: none; fill: rgb(41,29,41); fill-rule: nonzero; opacity: 1;" transform=" translate(-145.2643, -80.2333)" d="M 135.2 125.1 c 0 0 -12.1 -5.1 -16.5 -25.3 c 0 0 -24.5 -37.1 16.6 -59.5 c 0 0 27.7 -12.1 41 1.6 c 0.8 0.9 1.2 3.5 1.5 4.6 c 2 7.8 1.8 16.4 -1.7 23.8 c -2.6 5.1 -6.5 9.5 -11.3 12.7 c -3.2 2.1 -6.6 3.8 -10.1 5.1 c -3.8 1.5 -9.6 2 -12.7 4.9 s -1.4 4.5 -0.9 6.6 s 1.5 4.7 0.9 7.1 c -0.1 0.3 -0.3 0.8 -0.7 0.9 s -0.9 -0.5 -1.1 -1 c -1.3 -2.7 -2.3 -5.4 -3.2 -8.2 c -0.7 -2.3 -2.2 -4.4 -4.7 -4.8 c -2.3 -0.3 -4.5 0.8 -5.5 2.9 c -2.6 6.3 3 15.4 5.9 16.8 c 0.2 0 0.4 2.7 1.6 5.7 L 135.2 125.1 z" stroke-linecap="round"/>
</g>
		<g transform="matrix(1.6367 0 0 1.6367 10.995 -210.4433)" id="Woman_3">
<path style="stroke: none; stroke-width: 1; stroke-dasharray: none; stroke-linecap: butt; stroke-dashoffset: 0; stroke-linejoin: miter; stroke-miterlimit: 4; is-custom-font: none; font-file-url: none; fill: rgb(255,255,255); fill-rule: nonzero; opacity: 0.1;" transform=" translate(-147.2063, -68.8)" d="M 160.6 52.8 c 1.1 1.8 1.6 3.8 1.5 5.9 c 0 1.1 -0.2 2.1 -0.5 3.1 c -0.4 1 -0.9 2 -1.4 2.9 c -1.2 1.8 -2.6 3.3 -4.3 4.6 c -1.7 1.2 -3.4 2.2 -5.3 3 c -3.7 1.7 -7.4 2.8 -10.6 4.6 c -3.4 1.7 -6.1 4.5 -7.7 7.9 c 0.2 -2 0.9 -4 2 -5.7 c 1.2 -1.7 2.6 -3.2 4.3 -4.4 c 3.3 -2.5 7.1 -3.9 10.6 -5.4 c 1.7 -0.7 3.3 -1.6 4.8 -2.6 c 1.5 -1 2.9 -2.2 4.1 -3.5 c 1.1 -1.4 1.9 -3 2.4 -4.7 C 160.9 56.6 161 54.7 160.6 52.8 z" stroke-linecap="round"/>
</g>
		<g transform="matrix(1.6367 0 0 1.6367 79.6453 -225.992)" id="Woman_3">
<path style="stroke: none; stroke-width: 1; stroke-dasharray: none; stroke-linecap: butt; stroke-dashoffset: 0; stroke-linejoin: miter; stroke-miterlimit: 4; is-custom-font: none; font-file-url: none; fill: rgb(255,255,255); fill-rule: nonzero; opacity: 0.1;" transform=" translate(-189.15, -59.3)" d="M 173.6 50.2 c 1.4 -1.2 3 -1.9 4.8 -2.2 c 1.9 -0.2 3.7 0.2 5.4 1 c 1.7 0.8 3.2 1.8 4.5 3.2 c 1.3 1.3 2.4 2.7 3.3 4.2 c 1.9 2.9 3.4 6 5.3 8.5 c 1.9 2.7 4.6 4.7 7.8 5.7 c -1.8 0.2 -3.6 -0.2 -5.2 -1 c -1.6 -0.8 -3.1 -1.9 -4.3 -3.2 c -2.6 -2.6 -4.3 -5.7 -6.1 -8.4 c -0.8 -1.4 -1.7 -2.7 -2.8 -3.9 c -1 -1.2 -2.2 -2.2 -3.5 -3.1 c -1.3 -0.8 -2.8 -1.4 -4.4 -1.5 C 176.8 49.3 175.1 49.6 173.6 50.2 z" stroke-linecap="round"/>
</g>
		<g transform="matrix(1.6367 0 0 1.6367 -83.4541 36.4563)" id="Woman_3">
<path style="stroke: none; stroke-width: 1; stroke-dasharray: none; stroke-linecap: butt; stroke-dashoffset: 0; stroke-linejoin: miter; stroke-miterlimit: 4; is-custom-font: none; font-file-url: none; fill: rgb(147,101,95); fill-rule: nonzero; opacity: 1;" transform=" translate(-89.5, -219.65)" d="M 72.7 216.5 c 0 0 6.2 3.6 13.9 7.4 s 15.3 7.3 15.3 7.3 l 4.4 -12.6 l -31 -10.5 L 72.7 216.5 z" stroke-linecap="round"/>
</g>
		<g transform="matrix(1.6367 0 0 1.6367 -71.7687 2.8558)" id="Woman_3">
<path style="stroke: none; stroke-width: 1; stroke-dasharray: none; stroke-linecap: butt; stroke-dashoffset: 0; stroke-linejoin: miter; stroke-miterlimit: 4; is-custom-font: none; font-file-url: none; fill: rgb(15,9,83); fill-rule: nonzero; opacity: 1;" transform=" translate(-96.6396, -199.1211)" d="M 104.2 230.1 c -5 -2.8 -29.1 -13 -32.2 -21 c 0.4 -12.3 7.9 -38.4 20.1 -40.5 C 145.5 162.1 110.5 226.9 104.2 230.1 z" stroke-linecap="round"/>
</g>
		<g transform="matrix(1.6367 0 0 1.6367 55.9944 -158.1348)" id="Woman_3">
<path style="stroke: none; stroke-width: 1; stroke-dasharray: none; stroke-linecap: butt; stroke-dashoffset: 0; stroke-linejoin: miter; stroke-miterlimit: 4; is-custom-font: none; font-file-url: none; fill: rgb(0,0,0); fill-rule: nonzero; opacity: 1;" transform=" translate(-174.7, -100.7592)" d="M 195.3 91.4 l 2.3 0.2 l 2.8 0.4 l 1.8 0.3 c 0.3 0 0.5 0.3 0.4 0.6 c 0 0 0 0 0 0 c 0 0.4 0 0.7 0.1 1.1 c 0 0.6 0 1.1 0 1.7 c 0 0.3 -0.1 0.6 -0.4 0.8 c -0.5 0.1 -0.8 0.5 -0.9 1 c -0.4 1 -0.7 2 -0.9 3 c -0.3 1.1 -0.5 2.3 -0.8 3.5 c -0.3 1 -0.6 2 -1.1 2.9 c -0.5 1 -1.3 1.8 -2.3 2.3 c -1.4 0.7 -2.9 1 -4.4 1 c -1.5 0.1 -2.9 0.1 -4.4 -0.2 l -2.8 -0.6 c -1.2 -0.4 -2.4 -1.1 -3.3 -2 c -1.6 -1.6 -2.9 -3.5 -3.6 -5.7 l -1.1 -3.3 c -0.1 -0.7 -0.6 -1.2 -1.3 -1.4 c -0.9 -0.2 -1.8 0.2 -2.2 1 c -0.4 0.7 -0.7 1.4 -0.9 2.2 c -0.3 1.1 -0.8 2.2 -1.3 3.2 c -0.5 1 -1 2 -1.7 2.9 c -1.5 1.7 -3.4 2.9 -5.6 3.4 l -2.9 0.4 c -1.5 0.1 -3 0.1 -4.5 -0.1 c -0.9 -0.1 -1.8 -0.3 -2.6 -0.6 c -0.9 -0.4 -1.7 -1 -2.3 -1.8 c -0.6 -0.9 -1.1 -1.9 -1.4 -3 c -0.4 -1.1 -0.7 -2.3 -0.9 -3.5 c -0.3 -1.1 -0.5 -2.2 -0.9 -3.4 c -0.1 -0.5 -0.4 -1 -0.9 -1.2 c -0.4 -0.2 -0.6 -0.6 -0.6 -1 c 0 -1 0 -1.9 0.1 -2.9 c 0.1 -0.2 0.2 -0.3 0.4 -0.4 h 0.5 l 3.2 -0.5 l 2 -0.2 l 5.7 -0.2 c 1.4 -0.1 2.7 0 4.1 0.1 h 0.9 l 2.8 0.4 l 2.7 0.5 c 1.2 0.3 2.3 0.7 3.4 1.2 c 0.5 0.2 1.1 0.3 1.6 0.3 c 1 0.1 1.9 0 2.9 -0.2 l 2.9 -0.9 l 2.6 -0.7 l 1.5 -0.2 l 3 -0.4 h 4 C 192.3 91.3 193.8 91.2 195.3 91.4 z M 151.4 101 c 0.1 1.1 0.3 2.2 0.7 3.3 c 0.2 0.8 0.5 1.5 0.9 2.2 c 0.6 0.7 1.3 1.2 2.2 1.5 c 1.6 0.4 3.3 0.6 4.9 0.5 l 1.9 -0.2 c 1 -0.1 2 -0.4 3 -0.8 c 0.7 -0.4 1.4 -0.9 2 -1.5 c 1.9 -2.2 3 -5.1 3.2 -8 c 0.1 -0.6 0 -1.3 -0.2 -1.9 c -0.2 -0.9 -0.9 -1.5 -1.8 -1.7 c -0.9 -0.4 -1.8 -0.6 -2.7 -0.7 c -1.3 -0.3 -2.7 -0.5 -4 -0.5 h -1.6 l -3.2 0.3 l -2.8 0.5 c -0.5 0.1 -1 0.3 -1.4 0.6 c -0.3 0.3 -0.5 0.6 -0.7 1 c -0.3 0.6 -0.5 1.3 -0.4 2 c 0 0.5 -0.1 1 -0.1 1.6 C 151.3 99.8 151.3 100.4 151.4 101 z M 193.8 108.4 c 1.3 -0.2 2.5 -1.1 3 -2.3 c 0.4 -1 0.8 -2 0.9 -3.1 c 0.4 -1.6 0.5 -3.2 0.5 -4.8 c 0 -0.9 -0.2 -1.7 -0.5 -2.5 c -0.3 -0.8 -1 -1.5 -1.9 -1.7 l -2.6 -0.5 c -1.6 -0.2 -3.2 -0.3 -4.8 -0.3 c -1.3 0 -2.6 0.1 -3.9 0.4 c -0.9 0.1 -1.8 0.3 -2.6 0.6 c -0.8 0.3 -1.5 0.7 -2 1.4 c -0.2 0.3 -0.3 0.7 -0.3 1.1 c -0.2 0.9 -0.1 1.9 0.1 2.8 c 0.4 2.2 1.3 4.4 2.6 6.2 c 0.8 1.1 1.9 1.9 3.2 2.3 l 3.2 0.7 h 1.6 C 191.5 108.7 192.6 108.6 193.8 108.4 L 193.8 108.4 z M 199.6 94.2 h 1.2 C 200.4 94.1 200 94.1 199.6 94.2 L 199.6 94.2 z" stroke-linecap="round"/>
</g>
		<g transform="matrix(1.6367 0 0 1.6367 6.7521 -166.8243)" id="Woman_3">
<polygon style="stroke: none; stroke-width: 1; stroke-dasharray: none; stroke-linecap: butt; stroke-dashoffset: 0; stroke-linejoin: miter; stroke-miterlimit: 4; is-custom-font: none; font-file-url: none; fill: rgb(0,0,0); fill-rule: nonzero; opacity: 1;" points="3.35,-2.15 -3.45,-1.95 -3.05,1.65 3.45,2.15 "/>
</g>
		<g transform="matrix(1.6367 0 0 1.6367 -48.1721 55.7685)" id="Woman_3">
<path style="stroke: rgb(255,255,255); stroke-width: 1.37; stroke-dasharray: none; stroke-linecap: butt; stroke-dashoffset: 0; stroke-linejoin: miter; stroke-miterlimit: 10; is-custom-font: none; font-file-url: none; fill: none; fill-rule: nonzero; opacity: 1;" transform=" translate(-111.0564, -231.45)" d="M 99.7 167.5 c 12.7 1.1 20 7.2 22.3 38.5 c 0 0 1.6 45.9 -1.5 89.4" stroke-linecap="round"/>
</g>
		<g transform="matrix(1.6367 0 0 1.6367 15.5647 -77.5444)" id="Rulers">
<path style="stroke: none; stroke-width: 1; stroke-dasharray: none; stroke-linecap: butt; stroke-dashoffset: 0; stroke-linejoin: miter; stroke-miterlimit: 4; is-custom-font: none; font-file-url: none; fill: rgb(255,255,255); fill-rule: nonzero; opacity: 1;" transform=" translate(-150, -150)" d="M 220.7 0 C 253.5 48.8 275 121.2 275 164 c 0 69 -56 125 -125 125 S 25 233 25 164 C 25 121.2 46.5 48.8 79.3 0 H 0 v 300 h 300 V 0 H 220.7 z" stroke-linecap="round"/>
</g>
</g>
</g>
</svg>